Coordinates
version=1
nRows=21
nColumns=19
inDegrees=yes

Units are S.I. units (second, meters, Newtons, ...)
If the header above contains a line with 'inDegrees', this indicates whether rotational values are in degrees (yes) or radians (no).

endheader
time	pelvis_tilt	pelvis_list	pelvis_rotation	pelvis_tx	pelvis_ty	pelvis_tz	hip_flexion_r	hip_adduction_r	hip_rotation_r	knee_angle_r	knee_angle_r_beta	ankle_angle_r	hip_flexion_l	hip_adduction_l	hip_rotation_l	knee_angle_l	knee_angle_l_beta	ankle_angle_l
     16.89333333	     -3.75883680	      8.03623496	      4.35212530	      2.14649771	      0.86931970	      0.97021440	    -25.33070488	     -9.00615623	     -8.23751437	     69.15151237	      1.20692157	    -12.74848092	     31.23554994	     12.41871866	     -5.35137970	     11.88193425	      0.20737887	      7.03950189
     16.90000000	     -3.26454207	      8.47056020	      5.23424463	      2.14502160	      0.86592940	      0.97088575	    -24.20692416	     -8.38739891	     -7.66710699	     74.26654961	      1.29619581	    -13.55052950	     31.14111878	     12.91277186	     -6.68438172	     15.02476301	      0.26223158	      6.74616896
     16.90666667	     -2.46278729	      9.12228509	      6.28392666	      2.14360975	      0.86233127	      0.97155766	    -23.54330589	     -8.09149697	     -7.89156629	     79.15949249	      1.38159378	    -14.22136645	     30.71571030	     13.53246497	     -7.98783257	     18.66364201	      0.32574200	      6.51735780
     16.91333333	     -2.31296941	      9.30486121	      7.53918909	      2.14200032	      0.85779279	      0.97205878	    -21.96593867	     -7.44889273	     -8.24465008	     84.04774121	      1.46690981	    -14.72216450	     31.13468546	     13.67368565	     -8.89539995	     22.93077739	      0.40021757	      6.31312309
     16.92000000	     -1.86115740	      9.64561990	      8.88370424	      2.14034240	      0.85325047	      0.97247465	    -20.77476625	     -7.13525600	     -9.08996282	     88.71172815	      1.54831174	    -14.98990917	     31.07575563	     13.94049410	     -9.40923590	     27.23968382	      0.47542217	      6.41488096
     16.92666667	     -1.48464562	      9.92759022	     10.29293587	      2.13853731	      0.84857336	      0.97270386	    -19.43266163	     -6.97862016	    -10.13512314	     93.21817745	      1.62696412	    -15.02339991	     30.97862961	     14.19032967	     -9.40259888	     31.55098655	      0.55066860	      6.87956005
     16.93333333	     -1.11261809	     10.18305903	     11.71153137	      2.13649173	      0.84401580	      0.97272873	    -17.98759763	     -6.98505614	    -11.22477677	     97.56012968	      1.70274548	    -14.83491935	     30.73099739	     14.47322547	     -8.90249007	     35.73058208	      0.62361630	      7.78145331
     16.94000000	     -0.39031704	     10.65578407	     12.91516961	      2.13432151	      0.84019739	      0.97255914	    -16.89429643	     -7.52986322	    -12.30899719	    101.65653676	      1.77424127	    -14.53640687	     29.80651796	     14.91002402	     -8.17763984	     39.51609128	      0.68968590	      9.15705054
     16.94666667	     -0.64261857	     10.21466547	     14.38043102	      2.13149248	      0.83581079	      0.97198296	    -14.17617366	     -7.31199111	    -13.07721364	    105.71820330	      1.84513073	    -14.08605452	     30.04997681	     14.87047991	     -6.51814492	     43.37534429	      0.75704257	     10.96963169
     16.95333333	     -0.48173553	     10.12835982	     15.48901719	      2.12863214	      0.83241785	      0.97133361	    -11.85191140	     -7.72964991	    -13.60634019	    109.49101379	      1.91097869	    -13.63084633	     29.46242692	     15.02642002	     -4.99512948	     46.65084605	      0.81421086	     13.12759423
     16.96000000	     -0.38517457	      9.96552225	     16.32252479	      2.12553103	      0.82966024	      0.97066570	     -9.14398802	     -8.28509101	    -13.69721553	    113.03408478	      1.97281695	    -13.09746131	     28.68872284	     15.04889592	     -3.48972572	     49.43489261	      0.86280164	     15.50854123
     16.96666667	     -0.16989579	      9.76701724	     16.92315697	      2.12233369	      0.82772391	      0.97001161	     -6.30554814	     -8.90382110	    -13.44172647	    116.21663377	      2.02836290	    -12.59987502	     27.49827431	     14.92971858	     -1.98776649	     51.70544126	      0.90243019	     18.04652016
     16.97333333	      0.05330377	      9.51291792	     17.28213545	      2.11943816	      0.82663667	      0.96946681	     -3.22650185	     -9.51147324	    -12.81876688	    118.92096576	      2.07556240	    -12.29601967	     25.96005663	     14.60792715	     -0.62700585	     53.37739224	      0.93161124	     20.59676180
     16.98000000	      1.95334075	      9.43328874	     18.13642809	      2.11897151	      0.82890462	      0.96849028	     -2.69499515	     -9.54973155	    -13.20062441	    119.82100698	      2.09127108	    -12.29266136	     21.83887386	     14.05843167	      1.57564721	     54.25433001	      0.94691669	     23.22768789
     16.98666667	      4.36165603	      9.24559371	     18.90592471	      2.11920824	      0.83262430	      0.96754004	     -2.73474705	     -9.23665206	    -13.66698070	    119.90967441	      2.09281862	    -12.35513453	     16.82460075	     12.96153613	      3.83873371	     54.45356049	      0.95039392	     25.67819365
     16.99333333	      6.33336141	      8.91217464	     19.18044580	      2.11899325	      0.83631772	      0.96692119	     -1.88535261	     -8.98381903	    -13.51192295	    119.93442580	      2.09325062	    -12.30766111	     12.17452860	     11.50543151	      5.45791170	     54.03456811	      0.94308112	     27.72328708
     17.00000000	      7.64722712	      8.32911213	     19.08044193	      2.11821645	      0.83952180	      0.96646267	      0.05719744	     -8.79945246	    -12.88109523	    119.94439199	      2.09342456	    -12.11810777	      8.23897871	      9.86081553	      6.51547702	     53.17906982	      0.92814986	     29.28757169
     17.00666667	      8.13929186	      7.50637875	     18.71916961	      2.11693211	      0.84197721	      0.96617060	      3.20343825	     -8.65618690	    -11.89017710	    119.94769738	      2.09348225	    -11.73274679	      5.21963081	      8.21347066	      7.09500806	     52.04024268	      0.90827358	     30.32038407
     17.01333333	      7.93817797	      6.68922571	     18.05924818	      2.11521850	      0.84365789	      0.96611928	      7.27247261	     -8.72067624	    -10.55237131	    119.94616817	      2.09345556	    -11.12204600	      2.88124696	      6.82202676	      7.17160595	     50.64068787	      0.88384674	     30.83151387
     17.02000000	      6.73115415	      5.67877468	     17.10781342	      2.11306642	      0.84416205	      0.96636548	     12.74405024	     -8.70595933	     -8.83734451	    119.93988334	      2.09334587	    -10.50412784	      1.72585783	      5.59820810	      6.73017770	     49.26201255	      0.85978432	     30.80052972
     17.02666667	      4.71175063	      4.96804082	     15.86735720	      2.11072401	      0.84351320	      0.96699321	     19.15182117	     -8.96711777	     -6.71833448	    119.92419871	      2.09307212	     -9.75312818	      1.33238861	      4.95952199	      5.84732195	     47.80907241	      0.83442573	     30.23317931
